<svg width="55" height="40" fill="none" xmlns="http://www.w3.org/2000/svg"><path d="M30.312 23.401H2V3.381C2 1.472 3.504 0 5.45 0h21.5a3.345 3.345 0 013.362 3.38v20.021zM3.77 21.668h24.772V3.38c0-.866-.708-1.647-1.68-1.647H5.45c-.973 0-1.68.694-1.68 1.647v18.288zm40.697 17.334c-3.45 0-6.193-2.687-6.193-6.067 0-3.38 2.743-6.067 6.193-6.067 3.45 0 6.194 2.687 6.194 6.067 0 3.38-2.743 6.067-6.194 6.067zm0-10.4c-2.477 0-4.423 1.906-4.423 4.333 0 2.427 1.946 4.334 4.423 4.334 2.478 0 4.424-1.907 4.424-4.334 0-2.427-1.946-4.334-4.424-4.334zm-31.85 10.4c-3.45 0-6.193-2.687-6.193-6.067 0-3.38 2.743-6.067 6.193-6.067 3.45 0 6.193 2.687 6.193 6.067 0 3.38-2.742 6.067-6.193 6.067zm0-10.4c-2.477 0-4.424 1.906-4.424 4.333 0 2.427 1.947 4.334 4.424 4.334 2.478 0 4.424-1.907 4.424-4.334 0-2.427-1.947-4.334-4.424-4.334zm41.141-5.201h-15.04c-.532 0-.885-.346-.885-.866s.354-.867.884-.867h15.041c.53 0 .885.347.885.867s-.354.866-.885.866z" fill="#fff"/><path d="M16.156 15.6H2.885c-.531 0-.885-.346-.885-.866s.354-.867.885-.867h13.27c.532 0 .886.347.886.867s-.354.867-.885.867zm-3.539-4.333H2.885c-.531 0-.885-.347-.885-.867s.354-.866.885-.866h9.732c.53 0 .885.346.885.866s-.354.867-.885.867zm37.636 22.535h-3.362v-.867c0-2.427-1.946-4.333-4.424-4.333-2.477 0-4.423 1.906-4.423 4.333v.867H26.541V6.934h10.882c1.239 0 2.3.52 3.097 1.473l5.84 7.194.088.087h3.716c1.592 0 2.83 1.3 2.83 2.773v12.567c.09 1.474-1.238 2.774-2.742 2.774zm-1.681-1.733h1.593c.619 0 1.061-.52 1.061-1.127v-12.48c0-.608-.53-1.041-1.061-1.041h-3.716c-.62 0-1.15-.26-1.504-.693l-5.84-7.194c-.354-.607-.973-.867-1.68-.867h-9.113v23.401h8.05c.443-2.946 3.009-5.2 6.105-5.2 3.097 0 5.663 2.254 6.105 5.2z" fill="#fff"/><path d="M30.312 33.802H17.04v-.867c0-2.426-1.947-4.333-4.424-4.333-2.478 0-4.424 1.907-4.424 4.333v.867H4.654C3.15 33.802 2 32.675 2 31.202v-9.534h28.312v12.134zm-11.59-1.733h9.82V23.4H3.77v7.8c0 .52.353.867.884.867h1.858c.443-2.946 3.008-5.2 6.105-5.2 3.096 0 5.662 2.254 6.105 5.2z" fill="#fff"/><path d="M14.386 32.935c0 .953-.796 1.733-1.77 1.733-.972 0-1.769-.78-1.769-1.733 0-.953.797-1.734 1.77-1.734s1.77.78 1.77 1.734zm31.851 0c0 .953-.796 1.733-1.77 1.733-.972 0-1.769-.78-1.769-1.733 0-.953.797-1.734 1.77-1.734s1.77.78 1.77 1.734zm1.505-18.201H36.24c-1.327 0-2.388-1.04-2.388-2.34v-5.46h5.573c1.24 0 2.3.52 3.097 1.473l5.22 6.327zm-12.12-6.067v3.727c0 .347.264.607.618.607h7.875l-2.92-3.554c-.443-.52-1.062-.78-1.77-.78h-3.804z" fill="#fff"/><path d="M27.735 23.401H0V3.381C0 1.472 1.473 0 3.38 0h21.061c1.82 0 3.294 1.473 3.294 3.38v20.021zM1.733 21.668h24.268V3.38c0-.866-.693-1.647-1.646-1.647H3.38c-.953 0-1.647.694-1.647 1.647v18.288zm39.869 17.334a6.03 6.03 0 01-6.067-6.067 6.03 6.03 0 016.067-6.067 6.03 6.03 0 016.067 6.067 6.03 6.03 0 01-6.067 6.067zm0-10.4a4.292 4.292 0 00-4.334 4.333 4.291 4.291 0 004.334 4.334 4.291 4.291 0 004.334-4.334 4.292 4.292 0 00-4.334-4.334zm-31.201 10.4a6.03 6.03 0 01-6.067-6.067 6.03 6.03 0 016.067-6.067 6.03 6.03 0 016.067 6.067 6.03 6.03 0 01-6.067 6.067zm0-10.4a4.292 4.292 0 00-4.334 4.333 4.291 4.291 0 004.334 4.334 4.291 4.291 0 004.334-4.334 4.292 4.292 0 00-4.334-4.334zm40.302-5.201H35.97c-.52 0-.867-.346-.867-.866s.347-.867.867-.867h14.734c.52 0 .867.347.867.867s-.347.866-.867.866z" fill="#333"/><path d="M13.867 15.6h-13c-.52 0-.867-.346-.867-.866s.347-.867.867-.867h13c.52 0 .867.347.867.867s-.347.867-.867.867zM10.4 11.267H.868c-.52 0-.867-.347-.867-.867s.347-.866.867-.866H10.4c.52 0 .866.346.866.866s-.346.867-.866.867zm38.83 22.535h-3.294v-.867a4.291 4.291 0 00-4.334-4.333 4.291 4.291 0 00-4.334 4.333v.867H26.001V6.934h10.66c1.214 0 2.254.52 3.034 1.473l5.72 7.194.087.087h3.64c1.56 0 2.774 1.3 2.774 2.773v12.567c.087 1.474-1.213 2.774-2.687 2.774zm-1.648-1.733h1.56c.607 0 1.04-.52 1.04-1.127v-12.48c0-.608-.52-1.041-1.04-1.041h-3.64c-.606 0-1.126-.26-1.473-.693l-5.72-7.194c-.347-.607-.954-.867-1.647-.867h-8.927v23.401h7.887c.433-2.946 2.947-5.2 5.98-5.2 3.034 0 5.547 2.254 5.98 5.2z" fill="#333"/><path d="M27.735 33.802h-13v-.867a4.292 4.292 0 00-4.334-4.333 4.291 4.291 0 00-4.334 4.333v.867H2.6c-1.473 0-2.6-1.127-2.6-2.6v-9.534h27.735v12.134zM16.38 32.069H26V23.4H1.733v7.8c0 .52.347.867.867.867h1.82c.434-2.946 2.947-5.2 5.98-5.2 3.034 0 5.547 2.254 5.98 5.2z" fill="#333"/><path d="M12.134 32.935c0 .953-.78 1.733-1.734 1.733-.953 0-1.733-.78-1.733-1.733 0-.953.78-1.734 1.733-1.734.954 0 1.734.78 1.734 1.734zm31.202 0c0 .953-.78 1.733-1.733 1.733-.954 0-1.734-.78-1.734-1.733 0-.953.78-1.734 1.733-1.734.954 0 1.734.78 1.734 1.734zm1.474-18.201H33.541a2.33 2.33 0 01-2.34-2.34v-5.46h5.46c1.214 0 2.254.52 3.034 1.473l5.113 6.327zM32.934 8.667v3.727c0 .347.26.607.607.607h7.714l-2.86-3.554c-.434-.52-1.04-.78-1.734-.78h-3.727z" fill="#333"/></svg>