<svg width="53" height="53" fill="none" xmlns="http://www.w3.org/2000/svg"><path d="M40.947 28.648a2.78 2.78 0 00-3.935 0l-4.437 4.437c-2.057-.613-5.895-2.004-8.327-4.437-2.433-2.432-3.824-6.27-4.437-8.327l4.437-4.437a2.782 2.782 0 000-3.935L13.115.816a2.78 2.78 0 00-3.935 0L1.632 8.364A5.562 5.562 0 000 12.358c.064 3.963 1.113 17.73 11.962 28.578 10.849 10.849 24.615 11.895 28.58 11.962h.079a5.5 5.5 0 003.91-1.63l7.548-7.549a2.78 2.78 0 000-3.935L40.947 28.648zm-.353 18.681c-3.474-.058-15.358-.99-24.696-10.331C6.53 27.63 5.623 15.703 5.567 12.3l5.58-5.58 7.198 7.197-3.599 3.598a2.783 2.783 0 00-.757 2.539c.067.32 1.7 7.91 6.32 12.53 4.62 4.62 12.21 6.253 12.53 6.32a2.758 2.758 0 002.539-.754l3.602-3.599 7.197 7.198-5.583 5.58z" fill="#FDF7F7"/></svg>