<svg width="0" height="0" class="hidden"><symbol fill="none" xmlns="http://www.w3.org/2000/svg" viewBox="0 0 14 14" id="tick"><path d="M4.966 13.998a1.39 1.39 0 01-1.11-.553L.282 8.724a1.392 1.392 0 011.303-2.221 1.392 1.392 0 01.92.54l2.351 3.104L10.768.655a1.396 1.396 0 011.92-.445c.653.406.854 1.266.446 1.92L6.15 13.34a1.39 1.39 0 01-1.12.656c-.022.002-.042.002-.064.002z" fill="#333"/></symbol><symbol xmlns="http://www.w3.org/2000/svg" viewBox="0 0 18 18" id="vk"><path d="M2 0a2 2 0 00-2 2v14a2 2 0 002 2h14a2 2 0 002-2V2a2 2 0 00-2-2H2zm.5 5.5H4c.36 0 .5.16.64.57C5.36 8.17 6.57 10 7.07 10c.19 0 .28-.08.28-.55V7.28c-.06-1-.59-1.09-.59-1.44 0-.17.14-.34.38-.34h2.31c.32 0 .42.17.42.54v2.92c0 .31.13.42.23.42.19 0 .35-.11.69-.45 1.06-1.19 1.81-3.01 1.81-3.01.1-.22.27-.42.64-.42h1.47c.45 0 .55.23.45.54-.19.86-1.98 3.39-1.98 3.39-.18.25-.22.37 0 .66.15.21.67.65 1.01 1.06.64.71 1.11 1.31 1.25 1.72.12.42-.09.63-.51.63h-1.48c-.56 0-.72-.45-1.72-1.45-.88-.84-1.23-.95-1.47-.95-.3 0-.39.08-.39.51v1.32c0 .36-.11.57-1.05.57-1.56 0-3.28-.95-4.49-2.7C2.5 8.24 2 6.31 2 5.92c0-.22.08-.42.5-.42z"/></symbol><symbol xmlns="http://www.w3.org/2000/svg" viewBox="0 0 18 18" id="youtube"><path d="M17.298 1.545C16.648.448 15.45 0 13.158 0H4.842C2.498 0 1.278.477.632 1.645 0 2.785 0 4.463 0 6.786v4.428C0 15.714.749 18 4.842 18h8.316c1.987 0 3.088-.395 3.8-1.364.73-.993 1.042-2.614 1.042-5.422V6.786c0-2.45-.049-4.138-.702-5.24zm-5.742 8.066L7.78 12.416a.449.449 0 01-.27.094.46.46 0 01-.3-.12c-.174-.15-.28-.417-.28-.705V6.094c0-.288.106-.556.28-.705a.435.435 0 01.568-.028l3.777 2.787c.192.142.313.423.313.731s-.12.59-.312.732z"/></symbol><symbol fill="none" xmlns="http://www.w3.org/2000/svg" viewBox="0 0 11 20" id="arrow-left"><path d="M8.75 17.75L2 9.875 8.75 2" stroke="#333" stroke-width="3" stroke-linecap="round" stroke-linejoin="round"/></symbol><symbol fill="none" xmlns="http://www.w3.org/2000/svg" viewBox="0 0 11 20" id="arrow-right"><path d="M2.25 2.25L9 10.125 2.25 18" stroke="#333" stroke-width="3" stroke-linecap="round" stroke-linejoin="round"/></symbol><symbol fill="none" xmlns="http://www.w3.org/2000/svg" viewBox="0 0 14 14" id="auto-item"><path d="M4.966 13.998a1.39 1.39 0 01-1.11-.553L.282 8.724a1.392 1.392 0 011.303-2.221 1.392 1.392 0 01.92.54l2.351 3.104L10.768.655a1.396 1.396 0 011.92-.445c.653.406.854 1.266.446 1.92L6.15 13.34a1.39 1.39 0 01-1.12.656c-.022.002-.042.002-.064.002z" fill="#333"/></symbol><symbol xmlns="http://www.w3.org/2000/svg" viewBox="0 0 18 18" id="facebook"><path d="M3.287 0A3.28 3.28 0 000 3.287v11.426A3.28 3.28 0 003.287 18H9.48v-7.037H7.62V8.43h1.86V6.265c0-1.7 1.1-3.262 3.632-3.262 1.025 0 1.784.099 1.784.099l-.06 2.366s-.773-.008-1.617-.008c-.914 0-1.06.421-1.06 1.12v1.85h2.75l-.12 2.533h-2.63V18h2.554A3.28 3.28 0 0018 14.713V3.287A3.28 3.28 0 0014.713 0H3.287z"/></symbol><symbol fill="none" xmlns="http://www.w3.org/2000/svg" viewBox="0 0 55 40" id="icons-1"><path d="M30.312 23.401H2V3.381C2 1.472 3.504 0 5.45 0h21.5a3.345 3.345 0 013.362 3.38v20.021zM3.77 21.668h24.772V3.38c0-.866-.708-1.647-1.68-1.647H5.45c-.973 0-1.68.694-1.68 1.647v18.288zm40.697 17.334c-3.45 0-6.193-2.687-6.193-6.067 0-3.38 2.743-6.067 6.193-6.067 3.45 0 6.194 2.687 6.194 6.067 0 3.38-2.743 6.067-6.194 6.067zm0-10.4c-2.477 0-4.423 1.906-4.423 4.333 0 2.427 1.946 4.334 4.423 4.334 2.478 0 4.424-1.907 4.424-4.334 0-2.427-1.946-4.334-4.424-4.334zm-31.85 10.4c-3.45 0-6.193-2.687-6.193-6.067 0-3.38 2.743-6.067 6.193-6.067 3.45 0 6.193 2.687 6.193 6.067 0 3.38-2.742 6.067-6.193 6.067zm0-10.4c-2.477 0-4.424 1.906-4.424 4.333 0 2.427 1.947 4.334 4.424 4.334 2.478 0 4.424-1.907 4.424-4.334 0-2.427-1.947-4.334-4.424-4.334zm41.141-5.201h-15.04c-.532 0-.885-.346-.885-.866s.354-.867.884-.867h15.041c.53 0 .885.347.885.867s-.354.866-.885.866z" fill="#fff"/><path d="M16.156 15.6H2.885c-.531 0-.885-.346-.885-.866s.354-.867.885-.867h13.27c.532 0 .886.347.886.867s-.354.867-.885.867zm-3.539-4.333H2.885c-.531 0-.885-.347-.885-.867s.354-.866.885-.866h9.732c.53 0 .885.346.885.866s-.354.867-.885.867zm37.636 22.535h-3.362v-.867c0-2.427-1.946-4.333-4.424-4.333-2.477 0-4.423 1.906-4.423 4.333v.867H26.541V6.934h10.882c1.239 0 2.3.52 3.097 1.473l5.84 7.194.088.087h3.716c1.592 0 2.83 1.3 2.83 2.773v12.567c.09 1.474-1.238 2.774-2.742 2.774zm-1.681-1.733h1.593c.619 0 1.061-.52 1.061-1.127v-12.48c0-.608-.53-1.041-1.061-1.041h-3.716c-.62 0-1.15-.26-1.504-.693l-5.84-7.194c-.354-.607-.973-.867-1.68-.867h-9.113v23.401h8.05c.443-2.946 3.009-5.2 6.105-5.2 3.097 0 5.663 2.254 6.105 5.2z" fill="#fff"/><path d="M30.312 33.802H17.04v-.867c0-2.426-1.947-4.333-4.424-4.333-2.478 0-4.424 1.907-4.424 4.333v.867H4.654C3.15 33.802 2 32.675 2 31.202v-9.534h28.312v12.134zm-11.59-1.733h9.82V23.4H3.77v7.8c0 .52.353.867.884.867h1.858c.443-2.946 3.008-5.2 6.105-5.2 3.096 0 5.662 2.254 6.105 5.2z" fill="#fff"/><path d="M14.386 32.935c0 .953-.796 1.733-1.77 1.733-.972 0-1.769-.78-1.769-1.733 0-.953.797-1.734 1.77-1.734s1.77.78 1.77 1.734zm31.851 0c0 .953-.796 1.733-1.77 1.733-.972 0-1.769-.78-1.769-1.733 0-.953.797-1.734 1.77-1.734s1.77.78 1.77 1.734zm1.505-18.201H36.24c-1.327 0-2.388-1.04-2.388-2.34v-5.46h5.573c1.24 0 2.3.52 3.097 1.473l5.22 6.327zm-12.12-6.067v3.727c0 .347.264.607.618.607h7.875l-2.92-3.554c-.443-.52-1.062-.78-1.77-.78h-3.804z" fill="#fff"/><path d="M27.735 23.401H0V3.381C0 1.472 1.473 0 3.38 0h21.061c1.82 0 3.294 1.473 3.294 3.38v20.021zM1.733 21.668h24.268V3.38c0-.866-.693-1.647-1.646-1.647H3.38c-.953 0-1.647.694-1.647 1.647v18.288zm39.869 17.334a6.03 6.03 0 01-6.067-6.067 6.03 6.03 0 016.067-6.067 6.03 6.03 0 016.067 6.067 6.03 6.03 0 01-6.067 6.067zm0-10.4a4.292 4.292 0 00-4.334 4.333 4.291 4.291 0 004.334 4.334 4.291 4.291 0 004.334-4.334 4.292 4.292 0 00-4.334-4.334zm-31.201 10.4a6.03 6.03 0 01-6.067-6.067 6.03 6.03 0 016.067-6.067 6.03 6.03 0 016.067 6.067 6.03 6.03 0 01-6.067 6.067zm0-10.4a4.292 4.292 0 00-4.334 4.333 4.291 4.291 0 004.334 4.334 4.291 4.291 0 004.334-4.334 4.292 4.292 0 00-4.334-4.334zm40.302-5.201H35.97c-.52 0-.867-.346-.867-.866s.347-.867.867-.867h14.734c.52 0 .867.347.867.867s-.347.866-.867.866z" fill="#333"/><path d="M13.867 15.6h-13c-.52 0-.867-.346-.867-.866s.347-.867.867-.867h13c.52 0 .867.347.867.867s-.347.867-.867.867zM10.4 11.267H.868c-.52 0-.867-.347-.867-.867s.347-.866.867-.866H10.4c.52 0 .866.346.866.866s-.346.867-.866.867zm38.83 22.535h-3.294v-.867a4.291 4.291 0 00-4.334-4.333 4.291 4.291 0 00-4.334 4.333v.867H26.001V6.934h10.66c1.214 0 2.254.52 3.034 1.473l5.72 7.194.087.087h3.64c1.56 0 2.774 1.3 2.774 2.773v12.567c.087 1.474-1.213 2.774-2.687 2.774zm-1.648-1.733h1.56c.607 0 1.04-.52 1.04-1.127v-12.48c0-.608-.52-1.041-1.04-1.041h-3.64c-.606 0-1.126-.26-1.473-.693l-5.72-7.194c-.347-.607-.954-.867-1.647-.867h-8.927v23.401h7.887c.433-2.946 2.947-5.2 5.98-5.2 3.034 0 5.547 2.254 5.98 5.2z" fill="#333"/><path d="M27.735 33.802h-13v-.867a4.292 4.292 0 00-4.334-4.333 4.291 4.291 0 00-4.334 4.333v.867H2.6c-1.473 0-2.6-1.127-2.6-2.6v-9.534h27.735v12.134zM16.38 32.069H26V23.4H1.733v7.8c0 .52.347.867.867.867h1.82c.434-2.946 2.947-5.2 5.98-5.2 3.034 0 5.547 2.254 5.98 5.2z" fill="#333"/><path d="M12.134 32.935c0 .953-.78 1.733-1.734 1.733-.953 0-1.733-.78-1.733-1.733 0-.953.78-1.734 1.733-1.734.954 0 1.734.78 1.734 1.734zm31.202 0c0 .953-.78 1.733-1.733 1.733-.954 0-1.734-.78-1.734-1.733 0-.953.78-1.734 1.733-1.734.954 0 1.734.78 1.734 1.734zm1.474-18.201H33.541a2.33 2.33 0 01-2.34-2.34v-5.46h5.46c1.214 0 2.254.52 3.034 1.473l5.113 6.327zM32.934 8.667v3.727c0 .347.26.607.607.607h7.714l-2.86-3.554c-.434-.52-1.04-.78-1.734-.78h-3.727z" fill="#333"/></symbol><symbol fill="none" xmlns="http://www.w3.org/2000/svg" viewBox="0 0 42 38" id="icons-2"><path d="M36.033 11.168a.811.811 0 00-.116-.281.75.75 0 00-.217-.216.781.781 0 10.333.497z" fill="#fff"/><path d="M41.219.108H2.78A.781.781 0 002 .89v6.754c0 .431.35.781.781.781h1.095V37.11c0 .432.35.782.781.782h34.686c.431 0 .781-.35.781-.782V8.425h1.095c.431 0 .781-.35.781-.781V.89a.781.781 0 00-.781-.782zM16.85 1.671h10.3v5.191h-10.3V1.671zm0 6.754h10.3v10.206l-1.74-1.208a.781.781 0 00-.891 0L22 19.17l-2.519-1.747a.78.78 0 00-.89 0l-1.74 1.208V8.425zM3.562 6.862V1.671h11.726v5.191H3.562zm11.726 1.563v2.114h-9.85V8.425h9.85zm7.927 14.12v13.784H5.438V12.101h9.85v8.022a.781.781 0 001.226.642l2.522-1.749 2.519 1.746a.781.781 0 00.89 0l2.519-1.746 2.522 1.75a.78.78 0 001.226-.642V12.1h3.427a.781.781 0 100-1.562h-3.427V8.425h9.85v13.339H23.996a.781.781 0 00-.781.78zm15.347 13.784H24.777V23.326h13.785v13.003zm1.876-29.467H28.712V1.671h11.726v5.191z" fill="#fff"/><path d="M37.202 28.153c-.176-1.739-1.586-3.047-3.292-3.047-.83 0-1.582.334-2.151.928-.616-.574-1.45-.928-2.295-.928-1.69 0-2.991 1.252-3.17 3.047-.024.16-.058.58.096 1.2.233.937.767 1.786 1.55 2.46l3.256 2.747a.85.85 0 00.552.202.85.85 0 00.551-.201l3.262-2.753c.778-.668 1.312-1.517 1.545-2.455.154-.62.12-1.041.096-1.2zm-1.613.824c-.154.621-.516 1.19-1.04 1.642l-2.801 2.363-2.795-2.358c-.53-.457-.892-1.026-1.047-1.647a1.9 1.9 0 01-.069-.581c.008-.03.006-.03.01-.071.077-.825.607-1.656 1.617-1.656.667 0 1.345.434 1.611 1.033a.781.781 0 001.428 0c.172-.386.582-1.033 1.407-1.033.918 0 1.65.696 1.74 1.656.003.04 0 .04.008.07a1.9 1.9 0 01-.069.582z" fill="#fff"/><path d="M34.033 11.168a.811.811 0 00-.116-.281.75.75 0 00-.217-.216.781.781 0 10.333.497z" fill="#333"/><path d="M39.219.108H.78A.781.781 0 000 .89v6.754c0 .431.35.781.781.781h1.095V37.11c0 .432.35.782.781.782h34.686c.431 0 .781-.35.781-.782V8.425h1.095c.431 0 .781-.35.781-.781V.89a.781.781 0 00-.781-.782zM14.85 1.671h10.3v5.191h-10.3V1.671zm0 6.754h10.3v10.206l-1.74-1.208a.781.781 0 00-.891 0L20 19.17l-2.519-1.747a.78.78 0 00-.89 0l-1.74 1.208V8.425zM1.563 6.862V1.671h11.725v5.191H1.562zm11.725 1.563v2.114h-9.85V8.425h9.85zm7.927 14.12v13.784H3.438V12.101h9.85v8.022a.781.781 0 001.226.642l2.522-1.749 2.519 1.746a.781.781 0 00.89 0l2.519-1.746 2.522 1.75a.78.78 0 001.226-.642V12.1h3.427a.781.781 0 100-1.562h-3.427V8.425h9.85v13.339H21.996a.781.781 0 00-.781.78zm15.347 13.784H22.777V23.326h13.785v13.003zm1.876-29.467H26.712V1.671h11.726v5.191z" fill="#333"/><path d="M35.202 28.153c-.176-1.739-1.586-3.047-3.292-3.047-.83 0-1.582.334-2.151.928-.616-.574-1.45-.928-2.295-.928-1.69 0-2.991 1.252-3.17 3.047-.024.16-.058.58.096 1.2.233.937.767 1.786 1.55 2.46l3.256 2.747a.85.85 0 00.552.202.85.85 0 00.551-.201l3.262-2.753c.778-.668 1.312-1.517 1.545-2.455.154-.62.12-1.041.096-1.2zm-1.613.824c-.154.621-.516 1.19-1.04 1.642l-2.801 2.363-2.795-2.358c-.53-.457-.892-1.026-1.047-1.647a1.9 1.9 0 01-.069-.581c.008-.03.006-.03.01-.071.077-.825.607-1.656 1.617-1.656.667 0 1.345.434 1.611 1.033a.781.781 0 001.428 0c.172-.386.582-1.033 1.407-1.033.918 0 1.65.696 1.74 1.656.003.04 0 .04.008.07a1.9 1.9 0 01-.069.582z" fill="#333"/></symbol><symbol fill="none" xmlns="http://www.w3.org/2000/svg" viewBox="0 0 43 41" id="icons-3"><path d="M29.383 26.294c-.972 0-1.762-.684-1.762-1.524 0-.841.79-1.525 1.762-1.525.971 0 1.762.684 1.762 1.524a.8.8 0 001.601 0c0-1.467-1.093-2.7-2.562-3.036v-.416a.8.8 0 00-1.602 0v.416c-1.47.335-2.563 1.57-2.563 3.037 0 1.723 1.51 3.126 3.364 3.126.971 0 1.762.684 1.762 1.525 0 .84-.79 1.524-1.762 1.524s-1.762-.683-1.762-1.524a.8.8 0 00-1.601 0c0 1.467 1.093 2.701 2.562 3.036v.346a.8.8 0 001.602 0v-.346c1.469-.335 2.562-1.569 2.562-3.036 0-1.724-1.509-3.127-3.363-3.127zm8.771-4.763a10.434 10.434 0 00-4.262-3.772.8.8 0 10-.694 1.444 8.862 8.862 0 014.997 7.944c0 1.44-.355 2.868-1.027 4.13a.8.8 0 001.414.753 10.43 10.43 0 001.215-4.884c0-1.998-.569-3.94-1.643-5.615zm-7.512-4.795h-.054a.8.8 0 000 1.602h.05a.8.8 0 00.004-1.602zM25.575 35.09a8.862 8.862 0 01-4.997-7.944c0-1.44.355-2.869 1.027-4.13a.8.8 0 00-1.414-.753 10.432 10.432 0 00-1.214 4.883c0 2 .568 3.941 1.643 5.616a10.436 10.436 0 004.261 3.772.798.798 0 001.07-.375.8.8 0 00-.376-1.069zm2.611.865h-.047a.8.8 0 10-.007 1.601h.054a.8.8 0 000-1.601z" fill="#fff"/><path d="M33.023 14.027a3.67 3.67 0 00-.356-.654h2.085a3.688 3.688 0 003.683-3.684 3.688 3.688 0 00-3.683-3.683h-6.413a3.66 3.66 0 00.647-2.082A3.688 3.688 0 0025.303.24H5.683A3.688 3.688 0 002 3.924a3.688 3.688 0 003.684 3.683h6.412a3.663 3.663 0 00-.647 2.082c0 .773.24 1.49.647 2.082h-2.088a3.688 3.688 0 00-3.684 3.684c0 1.167.546 2.208 1.395 2.883a3.677 3.677 0 000 5.765 3.677 3.677 0 000 5.766 3.678 3.678 0 00-1.395 2.883 3.688 3.688 0 003.684 3.683h9.437a13.577 13.577 0 009.942 4.325C36.893 40.76 43 34.653 43 27.147c0-6.248-4.23-11.525-9.977-13.12zm1.729-6.42c1.148 0 2.082.934 2.082 2.082a2.084 2.084 0 01-2.082 2.082H15.133A2.084 2.084 0 0113.05 9.69c0-1.148.934-2.082 2.082-2.082h19.619zM5.684 6.006a2.084 2.084 0 01-2.082-2.082c0-1.148.934-2.082 2.082-2.082h19.619c1.148 0 2.082.934 2.082 2.082a2.084 2.084 0 01-2.082 2.082H5.683zm4.324 7.367h19.619c.323 0 .631.075.908.21a13.571 13.571 0 00-10.782 3.955h-9.745a2.084 2.084 0 01-2.082-2.083c0-1.148.934-2.082 2.082-2.082zm0 5.766h8.377a13.575 13.575 0 00-2.058 4.164h-6.32a2.084 2.084 0 01-2.081-2.082c0-1.148.934-2.082 2.082-2.082zm0 5.765h5.951a13.642 13.642 0 00-.05 4.164h-5.901a2.084 2.084 0 01-2.082-2.082c0-1.148.934-2.082 2.082-2.082zm0 9.93a2.084 2.084 0 01-2.082-2.082c0-1.148.934-2.082 2.082-2.082h6.229a13.558 13.558 0 001.921 4.164h-8.15zm19.379 4.324c-6.623 0-12.012-5.388-12.012-12.012 0-6.623 5.389-12.011 12.012-12.011s12.011 5.388 12.011 12.011c0 6.624-5.388 12.012-12.011 12.012z" fill="#fff"/><path d="M27.383 26.294c-.972 0-1.762-.684-1.762-1.524 0-.841.79-1.525 1.762-1.525.971 0 1.762.684 1.762 1.524a.8.8 0 001.601 0c0-1.467-1.093-2.7-2.562-3.036v-.416a.8.8 0 00-1.602 0v.416c-1.47.335-2.563 1.57-2.563 3.037 0 1.723 1.51 3.126 3.364 3.126.971 0 1.762.684 1.762 1.525 0 .84-.79 1.524-1.762 1.524s-1.762-.683-1.762-1.524a.8.8 0 00-1.601 0c0 1.467 1.093 2.701 2.562 3.036v.346a.8.8 0 001.602 0v-.346c1.469-.335 2.562-1.569 2.562-3.036 0-1.724-1.509-3.127-3.363-3.127zm8.771-4.763a10.434 10.434 0 00-4.262-3.772.8.8 0 10-.694 1.444 8.862 8.862 0 014.997 7.944c0 1.44-.355 2.868-1.027 4.13a.8.8 0 001.414.753 10.43 10.43 0 001.215-4.884c0-1.998-.569-3.94-1.643-5.615zm-7.512-4.795h-.054a.8.8 0 000 1.602h.05a.8.8 0 00.004-1.602zM23.575 35.09a8.862 8.862 0 01-4.997-7.944c0-1.44.355-2.869 1.027-4.13a.8.8 0 00-1.414-.753 10.432 10.432 0 00-1.214 4.883c0 2 .568 3.941 1.643 5.616a10.436 10.436 0 004.261 3.772.798.798 0 001.07-.375.8.8 0 00-.376-1.069zm2.611.865h-.047a.8.8 0 10-.007 1.601h.054a.8.8 0 000-1.601z" fill="#333"/><path d="M31.023 14.027a3.67 3.67 0 00-.356-.654h2.085a3.688 3.688 0 003.683-3.684 3.688 3.688 0 00-3.683-3.683h-6.413a3.66 3.66 0 00.647-2.082A3.688 3.688 0 0023.303.24H3.683A3.688 3.688 0 000 3.924a3.688 3.688 0 003.684 3.683h6.412A3.662 3.662 0 009.45 9.69c0 .773.24 1.49.647 2.082H8.008a3.688 3.688 0 00-3.684 3.684c0 1.167.546 2.208 1.395 2.883a3.677 3.677 0 000 5.765 3.677 3.677 0 000 5.766 3.678 3.678 0 00-1.395 2.883 3.688 3.688 0 003.684 3.683h9.437a13.577 13.577 0 009.942 4.325C34.893 40.76 41 34.653 41 27.147c0-6.248-4.23-11.525-9.977-13.12zm1.729-6.42c1.148 0 2.082.934 2.082 2.082a2.084 2.084 0 01-2.082 2.082H13.133A2.084 2.084 0 0111.05 9.69c0-1.148.934-2.082 2.082-2.082h19.619zM3.684 6.006a2.084 2.084 0 01-2.082-2.082c0-1.148.934-2.082 2.082-2.082h19.619c1.148 0 2.082.934 2.082 2.082a2.084 2.084 0 01-2.082 2.082H3.683zm4.324 7.367h19.619c.323 0 .631.075.908.21a13.571 13.571 0 00-10.782 3.955H8.008a2.084 2.084 0 01-2.082-2.083c0-1.148.934-2.082 2.082-2.082zm0 5.766h8.377a13.575 13.575 0 00-2.058 4.164h-6.32a2.084 2.084 0 01-2.081-2.082c0-1.148.934-2.082 2.082-2.082zm0 5.765h5.951a13.642 13.642 0 00-.05 4.164h-5.9a2.084 2.084 0 01-2.082-2.082c0-1.148.934-2.082 2.082-2.082zm0 9.93a2.084 2.084 0 01-2.082-2.082c0-1.148.934-2.082 2.082-2.082h6.229a13.558 13.558 0 001.921 4.164h-8.15zm19.379 4.324c-6.623 0-12.012-5.388-12.012-12.012 0-6.623 5.389-12.011 12.012-12.011s12.011 5.388 12.011 12.011c0 6.624-5.388 12.012-12.011 12.012z" fill="#333"/></symbol><symbol xmlns="http://www.w3.org/2000/svg" viewBox="0 0 18 18" id="instagram"><path d="M8.998 5.999a3.008 3.008 0 00-3.002 3 3.008 3.008 0 003.002 3.002 3.008 3.008 0 003-3.001 3.008 3.008 0 00-3-3.001zm9.001 3c0-1.242.011-2.474-.058-3.714-.07-1.441-.4-2.72-1.453-3.774C15.432.455 14.156.13 12.715.06 11.472-.01 10.24.001 9 .001 7.757 0 6.525-.011 5.285.059 3.844.13 2.565.458 1.51 1.511.455 2.567.13 3.844.06 5.285-.01 6.528.001 7.759.001 9c0 1.24-.012 2.474.058 3.715.07 1.44.399 2.72 1.452 3.773 1.056 1.056 2.333 1.383 3.774 1.453 1.243.07 2.474.058 3.715.058 1.243 0 2.474.011 3.715-.058 1.44-.07 2.72-.4 3.773-1.453 1.056-1.056 1.383-2.332 1.453-3.773.072-1.24.058-2.472.058-3.715zm-9.001 4.619A4.611 4.611 0 014.38 9a4.611 4.611 0 014.618-4.618A4.611 4.611 0 0113.615 9a4.611 4.611 0 01-4.617 4.618zm4.807-8.347a1.077 1.077 0 01-1.079-1.078c0-.597.482-1.079 1.079-1.079a1.077 1.077 0 01.412 2.076c-.13.054-.27.082-.412.081z"/></symbol><symbol xmlns="http://www.w3.org/2000/svg" viewBox="0 0 122.88 117.42" id="star-1"><path d="M66.71 3.55L81.1 37.26l36.58 3.28v-.01c1.55.13 2.91.89 3.85 2.01a5.663 5.663 0 011.32 4.13v.01a5.673 5.673 0 01-1.69 3.57c-.12.13-.25.25-.39.36L93.25 74.64l8.19 35.83c.35 1.53.05 3.06-.73 4.29a5.652 5.652 0 01-3.54 2.52l-.14.03c-.71.14-1.43.15-2.12.02v.01c-.75-.13-1.47-.42-2.11-.84l-.05-.03-31.3-18.71-31.55 18.86a5.664 5.664 0 01-7.79-1.96c-.38-.64-.62-1.33-.73-2.02-.1-.63-.09-1.27.02-1.89.02-.13.04-.27.08-.4l8.16-35.7c-9.24-8.07-18.74-16.1-27.83-24.3l-.08-.08a5.64 5.64 0 01-1.72-3.7c-.1-1.45.36-2.93 1.4-4.12l.12-.13.08-.08a5.668 5.668 0 013.77-1.72h.06l36.34-3.26 14.44-33.8c.61-1.44 1.76-2.5 3.11-3.05 1.35-.54 2.9-.57 4.34.04.69.29 1.3.71 1.8 1.22.53.53.94 1.15 1.22 1.82l.02.06zm10.19 37.2L61.85 5.51a.42.42 0 00-.09-.14.42.42 0 00-.14-.09.427.427 0 00-.35 0c-.1.04-.19.12-.24.24L45.98 40.75c-.37.86-1.18 1.49-2.18 1.58l-37.9 3.4c-.08.01-.16.02-.24.02-.06 0-.13.02-.18.05-.03.01-.05.03-.07.05l-.1.12c-.05.08-.07.17-.06.26.01.09.04.18.09.25.06.05.13.11.19.17l28.63 25c.77.61 1.17 1.62.94 2.65l-8.51 37.22-.03.14c-.01.06-.02.12-.01.17a.454.454 0 00.33.36c.12.03.24.02.34-.04l32.85-19.64c.8-.5 1.85-.54 2.72-.02L95.43 112c.08.04.16.09.24.14.05.03.1.05.16.06v.01c.04.01.09.01.14 0l.04-.01c.12-.03.22-.1.28-.2.06-.09.08-.21.05-.33L87.8 74.28a2.6 2.6 0 01.83-2.55l28.86-25.2c.04-.03.07-.08.1-.13.02-.04.03-.1.04-.17a.497.497 0 00-.09-.33.48.48 0 00-.3-.15v-.01c-.01 0-.03 0-.03-.01l-37.97-3.41c-1-.01-1.93-.6-2.34-1.57z" fill="#ffcf00"/></symbol><symbol fill="none" xmlns="http://www.w3.org/2000/svg" viewBox="0 0 53 53" id="phone"><path d="M40.947 28.648a2.78 2.78 0 00-3.935 0l-4.437 4.437c-2.057-.613-5.895-2.004-8.327-4.437-2.433-2.432-3.824-6.27-4.437-8.327l4.437-4.437a2.782 2.782 0 000-3.935L13.115.816a2.78 2.78 0 00-3.935 0L1.632 8.364A5.562 5.562 0 000 12.358c.064 3.963 1.113 17.73 11.962 28.578 10.849 10.849 24.615 11.895 28.58 11.962h.079a5.5 5.5 0 003.91-1.63l7.548-7.549a2.78 2.78 0 000-3.935L40.947 28.648zm-.353 18.681c-3.474-.058-15.358-.99-24.696-10.331C6.53 27.63 5.623 15.703 5.567 12.3l5.58-5.58 7.198 7.197-3.599 3.598a2.783 2.783 0 00-.757 2.539c.067.32 1.7 7.91 6.32 12.53 4.62 4.62 12.21 6.253 12.53 6.32a2.758 2.758 0 002.539-.754l3.602-3.599 7.197 7.198-5.583 5.58z" fill="#FDF7F7"/></symbol><symbol id="star-2" xmlns="http://www.w3.org/2000/svg" viewBox="0 0 122.88 117.1"><path fill="#ffcf00" d="M64.42 2l15.71 36.7L120 42.26a3.2 3.2 0 011.82 5.62l-30.18 26.3 8.9 39a3.19 3.19 0 01-2.42 3.82 3.27 3.27 0 01-2.46-.46L61.41 96.1l-34.34 20.54a3.18 3.18 0 01-4.38-1.09 3.14 3.14 0 01-.37-2.38l8.91-39L1.09 47.88a3.24 3.24 0 01-.32-4.52 3.32 3.32 0 012.29-1l39.72-3.56L58.49 2a3.24 3.24 0 015.93 0z"/></symbol></svg>