<svg width="0" height="0" class="hidden">
  <symbol fill="none" xmlns="http://www.w3.org/2000/svg" viewBox="0 0 11 20" id="arrow-right">
    <path d="M2.25 2.25L9 10.125L2.25 18" stroke="#333333" stroke-width="3" stroke-linecap="round" stroke-linejoin="round"></path>
  </symbol>
  <symbol fill="none" xmlns="http://www.w3.org/2000/svg" viewBox="0 0 14 14" id="auto-item">
    <path d="M4.9665 13.998C4.5315 13.998 4.1195 13.795 3.8555 13.445L0.2825 8.72396C0.172033 8.57816 0.091385 8.41202 0.0451667 8.23504C-0.00105163 8.05805 -0.0119341 7.87369 0.0131414 7.6925C0.0382168 7.51131 0.0987583 7.33683 0.191305 7.17905C0.283852 7.02127 0.406589 6.88328 0.5525 6.77296C0.698358 6.66218 0.864644 6.58128 1.04183 6.53489C1.21901 6.4885 1.40361 6.47753 1.58504 6.50261C1.76647 6.52769 1.94117 6.58834 2.09912 6.68106C2.25707 6.77378 2.39517 6.89677 2.5055 7.04296L4.8565 10.147L10.7675 0.654962C10.9635 0.341561 11.2759 0.118708 11.636 0.0352852C11.9961 -0.0481378 12.3746 0.0146808 12.6885 0.209962C13.3415 0.615962 13.5425 1.47596 13.1345 2.12996L6.1505 13.34C6.03128 13.5322 5.86695 13.6924 5.67177 13.8067C5.4766 13.921 5.25647 13.986 5.0305 13.996C5.0085 13.998 4.9885 13.998 4.9665 13.998Z" fill="#333333"></path>
  </symbol>
  <symbol fill="none" xmlns="http://www.w3.org/2000/svg" viewBox="0 0 18 18" id="facebook">
    <path d="M3.28669 0C1.46601 0 0 1.46601 0 3.28669V14.7133C0 16.534 1.46601 18 3.28669 18H9.47983V10.9631H7.61908V8.42963H9.47983V6.26513C9.47983 4.56458 10.5792 3.00319 13.1119 3.00319C14.1373 3.00319 14.8956 3.10163 14.8956 3.10163L14.8359 5.46752C14.8359 5.46752 14.0626 5.46021 13.2187 5.46021C12.3054 5.46021 12.159 5.88101 12.159 6.57959V8.42965H14.9085L14.7887 10.9632H12.159V18H14.7133C16.534 18 18 16.534 18 14.7133V3.28671C18 1.46603 16.534 1.8e-05 14.7133 1.8e-05H3.28667L3.28669 0Z" fill="#333333"></path>
  </symbol>
  <symbol fill="none" xmlns="http://www.w3.org/2000/svg" viewBox="0 0 55 40" id="icons-1">
    <path d="M30.3117 23.4013H2V3.38019C2 1.47345 3.50409 0 5.45049 0H26.9497C28.8076 0 30.3117 1.47345 30.3117 3.38019V23.4013ZM3.76952 21.6678H28.5422V3.38019C28.5422 2.51351 27.8344 1.73346 26.8612 1.73346H5.45049C4.47724 1.73346 3.76952 2.42687 3.76952 3.38019V21.6678Z" fill="white"></path>
    <path d="M44.4673 39.0021C41.0168 39.0021 38.2742 36.3153 38.2742 32.9351C38.2742 29.5549 41.0168 26.8682 44.4673 26.8682C47.9178 26.8682 50.6605 29.5549 50.6605 32.9351C50.6605 36.3153 47.9178 39.0021 44.4673 39.0021ZM44.4673 28.6015C41.9901 28.6015 40.0436 30.5083 40.0436 32.9351C40.0436 35.362 41.99 37.2687 44.4673 37.2687C46.9446 37.2687 48.8911 35.362 48.8911 32.9351C48.8911 30.5083 46.9446 28.6015 44.4673 28.6015Z" fill="white"></path>
    <path d="M12.6172 39.0021C9.16673 39.0021 6.42407 36.3153 6.42407 32.9351C6.42407 29.5549 9.16673 26.8682 12.6172 26.8682C16.0677 26.8682 18.8104 29.5549 18.8104 32.9351C18.8104 36.3153 16.0677 39.0021 12.6172 39.0021ZM12.6172 28.6015C10.14 28.6015 8.19348 30.5083 8.19348 32.9351C8.19348 35.362 10.1399 37.2687 12.6172 37.2687C15.0946 37.2687 17.041 35.362 17.041 32.9351C17.041 30.5083 15.0945 28.6015 12.6172 28.6015Z" fill="white"></path>
    <path d="M53.758 23.4013H38.7173C38.1865 23.4013 37.8326 23.0547 37.8326 22.5346C37.8326 22.0146 38.1865 21.668 38.7173 21.668H53.758C54.2888 21.668 54.6427 22.0146 54.6427 22.5346C54.6427 23.0546 54.2888 23.4013 53.758 23.4013Z" fill="white"></path>
    <path d="M16.1558 15.6008H2.88471C2.35386 15.6008 2 15.2541 2 14.7341C2 14.2141 2.35386 13.8674 2.88471 13.8674H16.1558C16.6867 13.8674 17.0405 14.2141 17.0405 14.7341C17.0406 15.254 16.6867 15.6008 16.1558 15.6008Z" fill="white"></path>
    <path d="M12.6169 11.2671H2.88471C2.35386 11.2671 2 10.9204 2 10.4004C2 9.88034 2.35386 9.53369 2.88471 9.53369H12.6169C13.1477 9.53369 13.5016 9.88034 13.5016 10.4004C13.5016 10.9204 13.1477 11.2671 12.6169 11.2671Z" fill="white"></path>
    <path d="M50.253 33.8019H46.891V32.9353C46.891 30.5085 44.9446 28.6017 42.4672 28.6017C39.99 28.6017 38.0435 30.5084 38.0435 32.9353V33.8019H26.542V6.93372H37.4243C38.663 6.93372 39.7247 7.45375 40.5209 8.40717L46.3602 15.6009L46.4487 15.6876H50.1646C51.7571 15.6876 52.9958 16.9876 52.9958 18.4611V31.0284C53.0842 32.5019 51.7571 33.8019 50.253 33.8019ZM48.572 32.0685H50.1646C50.7839 32.0685 51.2263 31.5485 51.2263 30.9418V18.4611C51.2263 17.8544 50.6954 17.421 50.1646 17.421H46.4487C45.8294 17.421 45.2985 17.161 44.9446 16.7276L39.1053 9.53386C38.7514 8.92719 38.132 8.66718 37.4243 8.66718H28.3115V32.0685H36.3626C36.805 29.1217 39.3707 26.8682 42.4673 26.8682C45.564 26.8682 48.1296 29.1217 48.572 32.0685Z" fill="white"></path>
    <path d="M30.3117 33.802H17.0406V32.9353C17.0406 30.5086 15.0942 28.6017 12.6169 28.6017C10.1395 28.6017 8.19315 30.5085 8.19315 32.9353V33.802H4.65422C3.15013 33.802 2 32.6753 2 31.2019V21.668H30.3117V33.802ZM18.7216 32.0685H28.5422V23.4014H3.76952V31.2019C3.76952 31.7219 4.12338 32.0685 4.65422 32.0685H6.51218C6.95458 29.1218 9.52026 26.8683 12.6169 26.8683C15.7135 26.8683 18.2792 29.1218 18.7216 32.0685Z" fill="white"></path>
    <path d="M14.3863 32.935C14.3863 33.8884 13.5901 34.6685 12.6168 34.6685C11.6436 34.6685 10.8473 33.8884 10.8473 32.935C10.8473 31.9816 11.6436 31.2015 12.6168 31.2015C13.5901 31.2015 14.3863 31.9817 14.3863 32.935Z" fill="white"></path>
    <path d="M46.2374 32.935C46.2374 33.8884 45.4411 34.6685 44.4679 34.6685C43.4946 34.6685 42.6984 33.8884 42.6984 32.935C42.6984 31.9816 43.4946 31.2015 44.4679 31.2015C45.4411 31.2016 46.2374 31.9817 46.2374 32.935Z" fill="white"></path>
    <path d="M47.742 14.7341H36.2404C34.9132 14.7341 33.8516 13.6941 33.8516 12.394V6.93372H39.4254C40.6641 6.93372 41.7258 7.45375 42.5221 8.40717L47.742 14.7341ZM35.6211 8.66718V12.394C35.6211 12.7407 35.8865 13.0007 36.2404 13.0007H44.1146L41.1949 9.44712C40.7525 8.92709 40.1333 8.66708 39.4254 8.66708L35.6211 8.66718Z" fill="white"></path>
    <path d="M27.7349 23.4013H0V3.38019C0 1.47345 1.47345 0 3.38019 0H24.4414C26.2615 0 27.7349 1.47345 27.7349 3.38019V23.4013ZM1.73346 21.6678H26.0014V3.38019C26.0014 2.51351 25.308 1.73346 24.3547 1.73346H3.38019C2.42677 1.73346 1.73346 2.42687 1.73346 3.38019V21.6678Z" fill="#333333"></path>
    <path d="M41.6019 39.0021C38.2217 39.0021 35.5349 36.3153 35.5349 32.9351C35.5349 29.5549 38.2217 26.8682 41.6019 26.8682C44.9821 26.8682 47.6689 29.5549 47.6689 32.9351C47.6689 36.3153 44.9821 39.0021 41.6019 39.0021ZM41.6019 28.6015C39.1751 28.6015 37.2683 30.5083 37.2683 32.9351C37.2683 35.362 39.175 37.2687 41.6019 37.2687C44.0287 37.2687 45.9355 35.362 45.9355 32.9351C45.9355 30.5083 44.0287 28.6015 41.6019 28.6015Z" fill="#333333"></path>
    <path d="M10.401 39.0021C7.02077 39.0021 4.33398 36.3153 4.33398 32.9351C4.33398 29.5549 7.02077 26.8682 10.401 26.8682C13.7811 26.8682 16.4679 29.5549 16.4679 32.9351C16.4679 36.3153 13.7811 39.0021 10.401 39.0021ZM10.401 28.6015C7.97419 28.6015 6.06735 30.5083 6.06735 32.9351C6.06735 35.362 7.97409 37.2687 10.401 37.2687C12.8278 37.2687 14.7346 35.362 14.7346 32.9351C14.7346 30.5083 12.8277 28.6015 10.401 28.6015Z" fill="#333333"></path>
    <path d="M50.7033 23.4013H35.9691C35.4491 23.4013 35.1024 23.0547 35.1024 22.5346C35.1024 22.0146 35.4491 21.668 35.9691 21.668H50.7033C51.2233 21.668 51.57 22.0146 51.57 22.5346C51.57 23.0546 51.2233 23.4013 50.7033 23.4013Z" fill="#333333"></path>
    <path d="M13.8674 15.6008H0.866681C0.346652 15.6008 0 15.2541 0 14.7341C0 14.2141 0.346652 13.8674 0.866681 13.8674H13.8674C14.3874 13.8674 14.7341 14.2141 14.7341 14.7341C14.7342 15.254 14.3874 15.6008 13.8674 15.6008Z" fill="#333333"></path>
    <path d="M10.4006 11.2671H0.866681C0.346652 11.2671 0 10.9204 0 10.4004C0 9.88034 0.346652 9.53369 0.866681 9.53369H10.4006C10.9206 9.53369 11.2673 9.88034 11.2673 10.4004C11.2673 10.9204 10.9206 11.2671 10.4006 11.2671Z" fill="#333333"></path>
    <path d="M49.2292 33.8019H45.9356V32.9353C45.9356 30.5085 44.0289 28.6017 41.602 28.6017C39.1752 28.6017 37.2684 30.5084 37.2684 32.9353V33.8019H26.0012V6.93372H36.6618C37.8753 6.93372 38.9153 7.45375 39.6954 8.40717L45.4157 15.6009L45.5023 15.6876H49.1425C50.7026 15.6876 51.916 16.9876 51.916 18.4611V31.0284C52.0027 32.5019 50.7026 33.8019 49.2292 33.8019ZM47.5824 32.0685H49.1425C49.7492 32.0685 50.1826 31.5485 50.1826 30.9418V18.4611C50.1826 17.8544 49.6625 17.421 49.1425 17.421H45.5023C44.8956 17.421 44.3756 17.161 44.0289 16.7276L38.3085 9.53386C37.9619 8.92719 37.3551 8.66718 36.6618 8.66718H27.7347V32.0685H35.6218C36.0552 29.1217 38.5686 26.8682 41.6021 26.8682C44.6356 26.8682 47.149 29.1217 47.5824 32.0685Z" fill="#333333"></path>
    <path d="M27.7349 33.802H14.7342V32.9353C14.7342 30.5086 12.8274 28.6017 10.4006 28.6017C7.97371 28.6017 6.06697 30.5085 6.06697 32.9353V33.802H2.60014C1.1267 33.802 0 32.6753 0 31.2019V21.668H27.7349V33.802ZM16.3809 32.0685H26.0014V23.4014H1.73346V31.2019C1.73346 31.7219 2.08012 32.0685 2.60014 32.0685H4.42025C4.85364 29.1218 7.36704 26.8683 10.4006 26.8683C13.4341 26.8683 15.9475 29.1218 16.3809 32.0685Z" fill="#333333"></path>
    <path d="M12.1336 32.935C12.1336 33.8884 11.3535 34.6685 10.4001 34.6685C9.44667 34.6685 8.66663 33.8884 8.66663 32.935C8.66663 31.9816 9.44667 31.2015 10.4001 31.2015C11.3535 31.2015 12.1336 31.9817 12.1336 32.935Z" fill="#333333"></path>
    <path d="M43.3359 32.935C43.3359 33.8884 42.5559 34.6685 41.6025 34.6685C40.6491 34.6685 39.869 33.8884 39.869 32.935C39.869 31.9816 40.6491 31.2015 41.6025 31.2015C42.5559 31.2016 43.3359 31.9817 43.3359 32.935Z" fill="#333333"></path>
    <path d="M44.8093 14.7341H33.542C32.242 14.7341 31.2019 13.6941 31.2019 12.394V6.93372H36.6622C37.8756 6.93372 38.9157 7.45375 39.6957 8.40717L44.8093 14.7341ZM32.9354 8.66718V12.394C32.9354 12.7407 33.1954 13.0007 33.542 13.0007H41.2558L38.3957 9.44712C37.9623 8.92709 37.3556 8.66708 36.6622 8.66708L32.9354 8.66718Z" fill="#333333"></path>
  </symbol>
  <symbol fill="none" xmlns="http://www.w3.org/2000/svg" viewBox="0 0 42 38" id="icons-2">
    <path d="M36.033 11.1679C36.0229 11.1179 36.008 11.0687 35.9885 11.0211C35.9689 10.9742 35.9447 10.9289 35.9166 10.8867C35.8877 10.8437 35.8557 10.8039 35.8189 10.7679C35.7829 10.732 35.7432 10.6992 35.7001 10.6711C35.6579 10.6429 35.6127 10.6187 35.5657 10.5992C35.5189 10.5797 35.4697 10.564 35.4196 10.5547C35.3189 10.5344 35.215 10.5344 35.1142 10.5547C35.0642 10.564 35.015 10.5797 34.9682 10.5992C34.9213 10.6187 34.876 10.6422 34.833 10.6711C34.7907 10.6992 34.7502 10.732 34.7143 10.7679C34.6783 10.8039 34.6454 10.8437 34.6174 10.8867C34.5892 10.9289 34.565 10.9742 34.5455 11.0211C34.526 11.0687 34.5111 11.1179 34.501 11.1679C34.4908 11.2179 34.4854 11.2695 34.4854 11.3203C34.4854 11.3711 34.4908 11.4226 34.501 11.4726C34.5111 11.5226 34.526 11.5719 34.5455 11.6187C34.565 11.6664 34.5893 11.7117 34.6174 11.7539C34.6454 11.7969 34.6783 11.8367 34.7143 11.8726C34.7502 11.9086 34.7908 11.9414 34.833 11.9695C34.8759 11.9976 34.9212 12.0219 34.9682 12.0414C35.015 12.0609 35.0642 12.0758 35.1142 12.0859C35.165 12.0961 35.2158 12.1015 35.2665 12.1015C35.4728 12.1015 35.6736 12.018 35.8189 11.8726C35.8557 11.8367 35.8877 11.7969 35.9166 11.7539C35.9447 11.7117 35.9689 11.6664 35.9885 11.6187C36.008 11.5719 36.0229 11.5226 36.033 11.4726C36.0432 11.4226 36.0479 11.3711 36.0479 11.3203C36.0479 11.2695 36.0432 11.2179 36.033 11.1679Z" fill="white"></path>
    <path d="M41.2188 0.108398H2.78125C2.34977 0.108398 2 0.458164 2 0.889648V7.64371C2 8.07519 2.34977 8.42496 2.78125 8.42496H3.8757V37.1103C3.8757 37.5418 4.22547 37.8915 4.65695 37.8915H39.343C39.7745 37.8915 40.1243 37.5418 40.1243 37.1103V8.42496H41.2188C41.6502 8.42496 42 8.07519 42 7.64371V0.889648C42 0.458164 41.6502 0.108398 41.2188 0.108398ZM16.8502 1.6709H27.1498V6.86246H16.8502V1.6709ZM16.8502 8.42496H27.1498V18.6308L25.4091 17.4234C25.1413 17.2377 24.7864 17.2377 24.5187 17.4233L22 19.1695L19.4812 17.4232C19.3473 17.3304 19.1917 17.284 19.0361 17.284C18.8804 17.284 18.7247 17.3305 18.5908 17.4233L16.8502 18.6307V8.42496ZM3.5625 6.86246V1.6709H15.2877V6.86246H3.5625ZM15.2877 8.42496V10.539H5.4382V8.42496H15.2877ZM23.2149 22.5448V36.329H5.4382V12.1014H15.2877V20.1235C15.2877 20.4142 15.4491 20.6808 15.7067 20.8157C15.9643 20.9505 16.2755 20.9311 16.5143 20.7654L19.0362 19.0161L21.5548 20.7622C21.8226 20.9478 22.1774 20.9478 22.4451 20.7622L24.9638 19.0161L27.4857 20.7654C27.6189 20.8578 27.7746 20.9047 27.931 20.9047C28.0549 20.9047 28.1794 20.8752 28.2932 20.8157C28.5508 20.6808 28.7122 20.4142 28.7122 20.1235V12.1014H32.1389C32.5703 12.1014 32.9202 11.7517 32.9202 11.3202C32.9202 10.8887 32.5703 10.5389 32.1389 10.5389H28.7122V8.42488H38.5617V21.7636H23.9962C23.5648 21.7636 23.2149 22.1133 23.2149 22.5448ZM38.5618 36.329H24.7774V23.326H38.5618V36.329ZM40.4375 6.86246H28.7123V1.6709H40.4375V6.86246Z" fill="white"></path>
    <path d="M37.2022 28.153C37.0264 26.4142 35.6157 25.1063 33.9102 25.1063C33.0804 25.1063 32.328 25.4401 31.7588 26.0345C31.1429 25.4601 30.3091 25.1063 29.4637 25.1063C27.7731 25.1063 26.4729 26.3578 26.2935 28.1533C26.27 28.3122 26.236 28.7333 26.3899 29.3534C26.6228 30.2901 27.1567 31.139 27.9397 31.813L31.1957 34.5603C31.3537 34.6948 31.5507 34.7621 31.7477 34.7621C31.9445 34.7621 32.1413 34.6951 32.2993 34.5608L35.5614 31.8082C36.3388 31.1397 36.8727 30.2908 37.1056 29.3534C37.2598 28.733 37.2255 28.3117 37.2022 28.153ZM35.5891 28.9766C35.4348 29.598 35.0729 30.1674 34.5481 30.6188L31.7477 32.9818L28.9531 30.6237C28.4225 30.167 28.0606 29.5975 27.9063 28.9767C27.8248 28.6481 27.8334 28.4462 27.8375 28.3958C27.8453 28.3651 27.8428 28.3651 27.8465 28.325C27.9237 27.5005 28.4536 26.6687 29.4636 26.6687C30.1313 26.6687 30.8092 27.1032 31.0753 27.7018C31.2008 27.9838 31.4806 28.1656 31.7892 28.1656C31.7892 28.1656 31.7893 28.1656 31.7894 28.1656C32.0981 28.1655 32.3779 27.9837 32.5032 27.7016C32.6746 27.3159 33.0852 26.6687 33.9102 26.6687C34.8279 26.6687 35.5592 27.3653 35.6491 28.3251C35.6528 28.3651 35.6502 28.3651 35.6581 28.3958C35.6621 28.4462 35.6708 28.6481 35.5891 28.9766Z" fill="white"></path>
    <path d="M34.033 11.1679C34.0229 11.1179 34.008 11.0687 33.9885 11.0211C33.9689 10.9742 33.9447 10.9289 33.9166 10.8867C33.8877 10.8437 33.8557 10.8039 33.8189 10.7679C33.7829 10.732 33.7432 10.6992 33.7001 10.6711C33.6579 10.6429 33.6127 10.6187 33.5657 10.5992C33.5189 10.5797 33.4697 10.564 33.4196 10.5547C33.3189 10.5344 33.215 10.5344 33.1142 10.5547C33.0642 10.564 33.015 10.5797 32.9682 10.5992C32.9213 10.6187 32.876 10.6422 32.833 10.6711C32.7907 10.6992 32.7502 10.732 32.7143 10.7679C32.6783 10.8039 32.6454 10.8437 32.6174 10.8867C32.5892 10.9289 32.565 10.9742 32.5455 11.0211C32.526 11.0687 32.5111 11.1179 32.501 11.1679C32.4908 11.2179 32.4854 11.2695 32.4854 11.3203C32.4854 11.3711 32.4908 11.4226 32.501 11.4726C32.5111 11.5226 32.526 11.5719 32.5455 11.6187C32.565 11.6664 32.5893 11.7117 32.6174 11.7539C32.6454 11.7969 32.6783 11.8367 32.7143 11.8726C32.7502 11.9086 32.7908 11.9414 32.833 11.9695C32.8759 11.9976 32.9212 12.0219 32.9682 12.0414C33.015 12.0609 33.0642 12.0758 33.1142 12.0859C33.165 12.0961 33.2158 12.1015 33.2665 12.1015C33.4728 12.1015 33.6736 12.018 33.8189 11.8726C33.8557 11.8367 33.8877 11.7969 33.9166 11.7539C33.9447 11.7117 33.9689 11.6664 33.9885 11.6187C34.008 11.5719 34.0229 11.5226 34.033 11.4726C34.0432 11.4226 34.0479 11.3711 34.0479 11.3203C34.0479 11.2695 34.0432 11.2179 34.033 11.1679Z" fill="#333333"></path>
    <path d="M39.2188 0.108398H0.78125C0.349766 0.108398 0 0.458164 0 0.889648V7.64371C0 8.07519 0.349766 8.42496 0.78125 8.42496H1.8757V37.1103C1.8757 37.5418 2.22547 37.8915 2.65695 37.8915H37.343C37.7745 37.8915 38.1243 37.5418 38.1243 37.1103V8.42496H39.2188C39.6502 8.42496 40 8.07519 40 7.64371V0.889648C40 0.458164 39.6502 0.108398 39.2188 0.108398ZM14.8502 1.6709H25.1498V6.86246H14.8502V1.6709ZM14.8502 8.42496H25.1498V18.6308L23.4091 17.4234C23.1413 17.2377 22.7864 17.2377 22.5187 17.4233L20 19.1695L17.4812 17.4232C17.3473 17.3304 17.1917 17.284 17.0361 17.284C16.8804 17.284 16.7247 17.3305 16.5908 17.4233L14.8502 18.6307V8.42496ZM1.5625 6.86246V1.6709H13.2877V6.86246H1.5625ZM13.2877 8.42496V10.539H3.4382V8.42496H13.2877ZM21.2149 22.5448V36.329H3.4382V12.1014H13.2877V20.1235C13.2877 20.4142 13.4491 20.6808 13.7067 20.8157C13.9643 20.9505 14.2755 20.9311 14.5143 20.7654L17.0362 19.0161L19.5548 20.7622C19.8226 20.9478 20.1774 20.9478 20.4451 20.7622L22.9638 19.0161L25.4857 20.7654C25.6189 20.8578 25.7746 20.9047 25.931 20.9047C26.0549 20.9047 26.1794 20.8752 26.2932 20.8157C26.5508 20.6808 26.7122 20.4142 26.7122 20.1235V12.1014H30.1389C30.5703 12.1014 30.9202 11.7517 30.9202 11.3202C30.9202 10.8887 30.5703 10.5389 30.1389 10.5389H26.7122V8.42488H36.5617V21.7636H21.9962C21.5648 21.7636 21.2149 22.1133 21.2149 22.5448ZM36.5618 36.329H22.7774V23.326H36.5618V36.329ZM38.4375 6.86246H26.7123V1.6709H38.4375V6.86246Z" fill="#333333"></path>
    <path d="M35.2022 28.153C35.0264 26.4142 33.6157 25.1063 31.9102 25.1063C31.0804 25.1063 30.328 25.4401 29.7588 26.0345C29.1429 25.4601 28.3091 25.1063 27.4637 25.1063C25.7731 25.1063 24.4729 26.3578 24.2935 28.1533C24.27 28.3122 24.236 28.7333 24.3899 29.3534C24.6228 30.2901 25.1567 31.139 25.9397 31.813L29.1957 34.5603C29.3537 34.6948 29.5507 34.7621 29.7477 34.7621C29.9445 34.7621 30.1413 34.6951 30.2993 34.5608L33.5614 31.8082C34.3388 31.1397 34.8727 30.2908 35.1056 29.3534C35.2598 28.733 35.2255 28.3117 35.2022 28.153ZM33.5891 28.9766C33.4348 29.598 33.0729 30.1674 32.5481 30.6188L29.7477 32.9818L26.9531 30.6237C26.4225 30.167 26.0606 29.5975 25.9063 28.9767C25.8248 28.6481 25.8334 28.4462 25.8375 28.3958C25.8453 28.3651 25.8428 28.3651 25.8465 28.325C25.9237 27.5005 26.4536 26.6687 27.4636 26.6687C28.1313 26.6687 28.8092 27.1032 29.0753 27.7018C29.2008 27.9838 29.4806 28.1656 29.7892 28.1656C29.7892 28.1656 29.7893 28.1656 29.7894 28.1656C30.0981 28.1655 30.3779 27.9837 30.5032 27.7016C30.6746 27.3159 31.0852 26.6687 31.9102 26.6687C32.8279 26.6687 33.5592 27.3653 33.6491 28.3251C33.6528 28.3651 33.6502 28.3651 33.6581 28.3958C33.6621 28.4462 33.6708 28.6481 33.5891 28.9766Z" fill="#333333"></path>
  </symbol>
  <symbol fill="none" xmlns="http://www.w3.org/2000/svg" viewBox="0 0 43 41" id="icons-3">
    <path d="M29.3828 26.2943C28.4114 26.2943 27.6211 25.6103 27.6211 24.7695C27.6211 23.9287 28.4114 23.2447 29.3828 23.2447C30.3542 23.2447 31.1445 23.9287 31.1445 24.7695C31.1445 25.2117 31.5031 25.5703 31.9453 25.5703C32.3875 25.5703 32.7461 25.2117 32.7461 24.7695C32.7461 23.3021 31.6527 22.0683 30.1836 21.7334V21.3169C30.1836 20.8747 29.825 20.5161 29.3828 20.5161C28.9406 20.5161 28.582 20.8747 28.582 21.3169V21.7334C27.1129 22.0683 26.0195 23.3021 26.0195 24.7695C26.0195 26.4934 27.5283 27.8959 29.3828 27.8959C30.3542 27.8959 31.1445 28.5799 31.1445 29.4207C31.1445 30.2615 30.3542 30.9455 29.3828 30.9455C28.4114 30.9455 27.6211 30.2615 27.6211 29.4207C27.6211 28.9785 27.2625 28.6199 26.8203 28.6199C26.3781 28.6199 26.0195 28.9785 26.0195 29.4207C26.0195 30.8881 27.1129 32.122 28.582 32.4569V32.8028C28.582 33.245 28.9406 33.6036 29.3828 33.6036C29.825 33.6036 30.1836 33.245 30.1836 32.8028V32.4569C31.6527 32.122 32.7461 30.8881 32.7461 29.4207C32.7461 27.6968 31.2373 26.2943 29.3828 26.2943Z" fill="white"></path>
    <path d="M38.1535 21.531C37.1075 19.901 35.6337 18.5967 33.8916 17.7592C33.4929 17.5675 33.0145 17.7354 32.8229 18.134C32.6313 18.5326 32.799 19.011 33.1977 19.2026C36.2335 20.662 38.195 23.7801 38.195 27.1465C38.195 28.5869 37.84 30.0154 37.1683 31.2778C36.9606 31.6681 37.1087 32.1531 37.4991 32.3608C37.6189 32.4246 37.7477 32.4548 37.8746 32.4548C38.1611 32.4548 38.4382 32.3006 38.5822 32.03C39.3767 30.537 39.7966 28.8483 39.7966 27.1465C39.7966 25.1477 39.2284 23.2059 38.1535 21.531Z" fill="white"></path>
    <path d="M30.6418 16.7364L30.5879 16.7363C30.1457 16.7363 29.7871 17.0948 29.7871 17.5371C29.7871 17.9794 30.1457 18.3379 30.5879 18.3379L30.6343 18.338C30.6355 18.338 30.6367 18.338 30.6381 18.338C31.0786 18.338 31.4367 17.9819 31.4388 17.5409C31.4408 17.0987 31.084 16.7385 30.6418 16.7364Z" fill="white"></path>
    <path d="M25.5754 35.0903C22.5396 33.6309 20.5781 30.5127 20.5781 27.1465C20.5781 25.706 20.9332 24.2775 21.6048 23.0152C21.8125 22.6248 21.6645 22.1399 21.274 21.9321C20.8837 21.7244 20.3986 21.8725 20.1909 22.2629C19.3965 23.756 18.9766 25.4447 18.9766 27.1465C18.9766 29.1452 19.5447 31.087 20.6196 32.762C21.6657 34.3919 23.1394 35.6962 24.8815 36.5338C24.9934 36.5876 25.1116 36.613 25.2279 36.613C25.5261 36.613 25.8123 36.4457 25.9502 36.159C26.1417 35.7604 25.974 35.2819 25.5754 35.0903Z" fill="white"></path>
    <path d="M28.1857 35.955L28.1394 35.9548C27.6951 35.954 27.337 36.3095 27.335 36.7519C27.3329 37.1941 27.6899 37.5543 28.1321 37.5564L28.1857 37.5566C28.6279 37.5566 28.9865 37.198 28.9865 36.7558C28.9865 36.3136 28.6279 35.955 28.1857 35.955Z" fill="white"></path>
    <path d="M33.0229 14.0271C32.9255 13.7949 32.8061 13.576 32.6671 13.373H34.7519C36.783 13.373 38.4355 11.7205 38.4355 9.68944C38.4355 7.65834 36.783 6.00585 34.7519 6.00585H28.3392C28.7469 5.41311 28.9863 4.69601 28.9863 3.92382C28.9863 1.89272 27.3338 0.240234 25.3027 0.240234H5.68359C3.65249 0.240234 2 1.89272 2 3.92382C2 5.95492 3.65249 7.60741 5.68359 7.60741H12.0962C11.6886 8.20015 11.4492 8.91724 11.4492 9.68944C11.4492 10.4616 11.6885 11.1787 12.0962 11.7715H10.0078C7.9767 11.7715 6.32421 13.424 6.32421 15.455C6.32421 16.6215 6.86986 17.6625 7.71877 18.3379C6.86986 19.0132 6.32421 20.0542 6.32421 21.2207C6.32421 22.3872 6.86986 23.4281 7.71877 24.1035C6.86986 24.7788 6.32421 25.8198 6.32421 26.9863C6.32421 28.1528 6.86986 29.1937 7.71877 29.8691C6.86986 30.5445 6.32421 31.5854 6.32421 32.7519C6.32421 34.783 7.9767 36.4355 10.0078 36.4355H19.445C21.9311 39.0946 25.4678 40.7598 29.3867 40.7598C36.8931 40.7598 43 34.6529 43 27.1465C43 20.8991 38.7695 15.6219 33.0229 14.0271ZM34.7519 7.60741C35.9 7.60741 36.8339 8.54144 36.8339 9.68944C36.8339 10.8374 35.9 11.7715 34.7519 11.7715H29.6269H15.1328C13.9847 11.7715 13.0508 10.8374 13.0508 9.68944C13.0508 8.54144 13.9847 7.60741 15.1328 7.60741H34.7519ZM5.68359 6.00585C4.53551 6.00585 3.60156 5.07182 3.60156 3.92382C3.60156 2.77582 4.53551 1.84179 5.68359 1.84179H25.3027C26.4508 1.84179 27.3847 2.77582 27.3847 3.92382C27.3847 5.07182 26.4508 6.00585 25.3027 6.00585H5.68359ZM10.0078 13.373H29.6269C29.9495 13.373 30.2583 13.448 30.5354 13.5822C30.1566 13.5504 29.7737 13.5333 29.3867 13.5333C25.6275 13.5333 22.2194 15.0651 19.7534 17.5371H10.0078C8.8598 17.5371 7.92577 16.603 7.92577 15.455C7.92577 14.3071 8.8598 13.373 10.0078 13.373ZM10.0078 19.1386H18.3852C17.4761 20.3841 16.7733 21.7888 16.3269 23.3027H10.0078C8.85972 23.3027 7.92577 22.3687 7.92577 21.2207C7.92577 20.0727 8.85972 19.1386 10.0078 19.1386ZM10.0078 24.9043H15.9592C15.8377 25.634 15.7735 26.3828 15.7735 27.1465C15.7735 27.7988 15.8207 28.4403 15.9098 29.0683H10.0078C8.85972 29.0683 7.92577 28.1344 7.92577 26.9863C7.92577 25.8382 8.85972 24.9043 10.0078 24.9043ZM10.0078 34.8339C8.85972 34.8339 7.92577 33.9 7.92577 32.7519C7.92577 31.6038 8.85972 30.6699 10.0078 30.6699H16.2367C16.6408 32.1764 17.2972 33.5804 18.1581 34.8339H10.0078ZM29.3867 39.1582C22.7635 39.1582 17.3751 33.7698 17.3751 27.1465C17.3751 20.5233 22.7635 15.1348 29.3867 15.1348C36.01 15.1348 41.3984 20.5233 41.3984 27.1465C41.3984 33.7698 36.01 39.1582 29.3867 39.1582Z" fill="white"></path>
    <path d="M27.3828 26.2943C26.4114 26.2943 25.6211 25.6103 25.6211 24.7695C25.6211 23.9287 26.4114 23.2447 27.3828 23.2447C28.3542 23.2447 29.1445 23.9287 29.1445 24.7695C29.1445 25.2117 29.5031 25.5703 29.9453 25.5703C30.3875 25.5703 30.7461 25.2117 30.7461 24.7695C30.7461 23.3021 29.6527 22.0683 28.1836 21.7334V21.3169C28.1836 20.8747 27.825 20.5161 27.3828 20.5161C26.9406 20.5161 26.582 20.8747 26.582 21.3169V21.7334C25.1129 22.0683 24.0195 23.3021 24.0195 24.7695C24.0195 26.4934 25.5283 27.8959 27.3828 27.8959C28.3542 27.8959 29.1445 28.5799 29.1445 29.4207C29.1445 30.2615 28.3542 30.9455 27.3828 30.9455C26.4114 30.9455 25.6211 30.2615 25.6211 29.4207C25.6211 28.9785 25.2625 28.6199 24.8203 28.6199C24.3781 28.6199 24.0195 28.9785 24.0195 29.4207C24.0195 30.8881 25.1129 32.122 26.582 32.4569V32.8028C26.582 33.245 26.9406 33.6036 27.3828 33.6036C27.825 33.6036 28.1836 33.245 28.1836 32.8028V32.4569C29.6527 32.122 30.7461 30.8881 30.7461 29.4207C30.7461 27.6968 29.2373 26.2943 27.3828 26.2943Z" fill="#333333"></path>
    <path d="M36.1535 21.531C35.1075 19.901 33.6337 18.5967 31.8916 17.7592C31.4929 17.5675 31.0145 17.7354 30.8229 18.134C30.6313 18.5326 30.799 19.011 31.1977 19.2026C34.2335 20.662 36.195 23.7801 36.195 27.1465C36.195 28.5869 35.84 30.0154 35.1683 31.2778C34.9606 31.6681 35.1087 32.1531 35.4991 32.3608C35.6189 32.4246 35.7477 32.4548 35.8746 32.4548C36.1611 32.4548 36.4382 32.3006 36.5822 32.03C37.3767 30.537 37.7966 28.8483 37.7966 27.1465C37.7966 25.1477 37.2284 23.2059 36.1535 21.531Z" fill="#333333"></path>
    <path d="M28.6418 16.7364L28.5879 16.7363C28.1457 16.7363 27.7871 17.0948 27.7871 17.5371C27.7871 17.9794 28.1457 18.3379 28.5879 18.3379L28.6343 18.338C28.6355 18.338 28.6367 18.338 28.6381 18.338C29.0786 18.338 29.4367 17.9819 29.4388 17.5409C29.4408 17.0987 29.084 16.7385 28.6418 16.7364Z" fill="#333333"></path>
    <path d="M23.5754 35.0903C20.5396 33.6309 18.5781 30.5127 18.5781 27.1465C18.5781 25.706 18.9332 24.2775 19.6048 23.0152C19.8125 22.6248 19.6645 22.1399 19.274 21.9321C18.8837 21.7244 18.3986 21.8725 18.1909 22.2629C17.3965 23.756 16.9766 25.4447 16.9766 27.1465C16.9766 29.1452 17.5447 31.087 18.6196 32.762C19.6657 34.3919 21.1394 35.6962 22.8815 36.5338C22.9934 36.5876 23.1116 36.613 23.2279 36.613C23.5261 36.613 23.8123 36.4457 23.9502 36.159C24.1417 35.7604 23.974 35.2819 23.5754 35.0903Z" fill="#333333"></path>
    <path d="M26.1857 35.955L26.1394 35.9548C25.6951 35.954 25.337 36.3095 25.335 36.7519C25.3329 37.1941 25.6899 37.5543 26.1321 37.5564L26.1857 37.5566C26.6279 37.5566 26.9865 37.198 26.9865 36.7558C26.9865 36.3136 26.6279 35.955 26.1857 35.955Z" fill="#333333"></path>
    <path d="M31.0229 14.0271C30.9255 13.7949 30.8061 13.576 30.6671 13.373H32.7519C34.783 13.373 36.4355 11.7205 36.4355 9.68944C36.4355 7.65834 34.783 6.00585 32.7519 6.00585H26.3392C26.7469 5.41311 26.9863 4.69601 26.9863 3.92382C26.9863 1.89272 25.3338 0.240234 23.3027 0.240234H3.68359C1.65249 0.240234 0 1.89272 0 3.92382C0 5.95492 1.65249 7.60741 3.68359 7.60741H10.0962C9.68855 8.20015 9.4492 8.91724 9.4492 9.68944C9.4492 10.4616 9.68847 11.1787 10.0962 11.7715H8.0078C5.9767 11.7715 4.32421 13.424 4.32421 15.455C4.32421 16.6215 4.86986 17.6625 5.71877 18.3379C4.86986 19.0132 4.32421 20.0542 4.32421 21.2207C4.32421 22.3872 4.86986 23.4281 5.71877 24.1035C4.86986 24.7788 4.32421 25.8198 4.32421 26.9863C4.32421 28.1528 4.86986 29.1937 5.71877 29.8691C4.86986 30.5445 4.32421 31.5854 4.32421 32.7519C4.32421 34.783 5.9767 36.4355 8.0078 36.4355H17.445C19.9311 39.0946 23.4678 40.7598 27.3867 40.7598C34.8931 40.7598 41 34.6529 41 27.1465C41 20.8991 36.7695 15.6219 31.0229 14.0271ZM32.7519 7.60741C33.9 7.60741 34.8339 8.54144 34.8339 9.68944C34.8339 10.8374 33.9 11.7715 32.7519 11.7715H27.6269H13.1328C11.9847 11.7715 11.0508 10.8374 11.0508 9.68944C11.0508 8.54144 11.9847 7.60741 13.1328 7.60741H32.7519ZM3.68359 6.00585C2.53551 6.00585 1.60156 5.07182 1.60156 3.92382C1.60156 2.77582 2.53551 1.84179 3.68359 1.84179H23.3027C24.4508 1.84179 25.3847 2.77582 25.3847 3.92382C25.3847 5.07182 24.4508 6.00585 23.3027 6.00585H3.68359ZM8.0078 13.373H27.6269C27.9495 13.373 28.2583 13.448 28.5354 13.5822C28.1566 13.5504 27.7737 13.5333 27.3867 13.5333C23.6275 13.5333 20.2194 15.0651 17.7534 17.5371H8.0078C6.8598 17.5371 5.92577 16.603 5.92577 15.455C5.92577 14.3071 6.8598 13.373 8.0078 13.373ZM8.0078 19.1386H16.3852C15.4761 20.3841 14.7733 21.7888 14.3269 23.3027H8.0078C6.85972 23.3027 5.92577 22.3687 5.92577 21.2207C5.92577 20.0727 6.85972 19.1386 8.0078 19.1386ZM8.0078 24.9043H13.9592C13.8377 25.634 13.7735 26.3828 13.7735 27.1465C13.7735 27.7988 13.8207 28.4403 13.9098 29.0683H8.0078C6.85972 29.0683 5.92577 28.1344 5.92577 26.9863C5.92577 25.8382 6.85972 24.9043 8.0078 24.9043ZM8.0078 34.8339C6.85972 34.8339 5.92577 33.9 5.92577 32.7519C5.92577 31.6038 6.85972 30.6699 8.0078 30.6699H14.2367C14.6408 32.1764 15.2972 33.5804 16.1581 34.8339H8.0078ZM27.3867 39.1582C20.7635 39.1582 15.3751 33.7698 15.3751 27.1465C15.3751 20.5233 20.7635 15.1348 27.3867 15.1348C34.01 15.1348 39.3984 20.5233 39.3984 27.1465C39.3984 33.7698 34.01 39.1582 27.3867 39.1582Z" fill="#333333"></path>
  </symbol>
  <symbol fill="none" xmlns="http://www.w3.org/2000/svg" viewBox="0 0 18 18" id="instagram">
    <path d="M8.99758 5.99861C7.345 5.99861 5.99636 7.34725 5.99636 8.99983C5.99636 10.6524 7.345 12.0011 8.99758 12.0011C10.6502 12.0011 11.9988 10.6524 11.9988 8.99983C11.9988 7.34725 10.6502 5.99861 8.99758 5.99861ZM17.999 8.99983C17.999 7.75702 18.0103 6.52546 17.9405 5.28489C17.8707 3.84394 17.5419 2.5651 16.4883 1.51141C15.4323 0.455468 14.1557 0.129004 12.7148 0.0592081C11.472 -0.0105877 10.2404 0.000669689 8.99983 0.000669689C7.75702 0.000669689 6.52546 -0.0105877 5.28489 0.0592081C3.84395 0.129004 2.5651 0.45772 1.51141 1.51141C0.455469 2.56736 0.129004 3.84394 0.0592081 5.28489C-0.0105877 6.52771 0.000669689 7.75927 0.000669689 8.99983C0.000669689 10.2404 -0.0105877 11.4742 0.0592081 12.7148C0.129004 14.1557 0.45772 15.4346 1.51141 16.4883C2.56736 17.5442 3.84395 17.8707 5.28489 17.9405C6.52771 18.0103 7.75927 17.999 8.99983 17.999C10.2426 17.999 11.4742 18.0103 12.7148 17.9405C14.1557 17.8707 15.4346 17.5419 16.4883 16.4883C17.5442 15.4323 17.8707 14.1557 17.9405 12.7148C18.0125 11.4742 17.999 10.2426 17.999 8.99983ZM8.99758 13.6176C6.44215 13.6176 4.3798 11.5553 4.3798 8.99983C4.3798 6.4444 6.44215 4.38205 8.99758 4.38205C11.553 4.38205 13.6154 6.4444 13.6154 8.99983C13.6154 11.5553 11.553 13.6176 8.99758 13.6176ZM13.8045 5.27138C13.2078 5.27138 12.726 4.78957 12.726 4.19292C12.726 3.59628 13.2078 3.11447 13.8045 3.11447C14.4011 3.11447 14.8829 3.59628 14.8829 4.19292C14.8831 4.3346 14.8554 4.47492 14.8012 4.60584C14.7471 4.73677 14.6677 4.85573 14.5675 4.95591C14.4673 5.05609 14.3483 5.13552 14.2174 5.18965C14.0865 5.24379 13.9462 5.27156 13.8045 5.27138Z" fill="#333333"></path>
  </symbol>
  <symbol fill="none" xmlns="http://www.w3.org/2000/svg" viewBox="0 0 14 14" id="map-items">
    <path d="M4.9665 13.9987C4.5315 13.9987 4.1195 13.7957 3.8555 13.4457L0.2825 8.72469C0.172033 8.5789 0.091385 8.41276 0.0451667 8.23577C-0.00105163 8.05879 -0.0119341 7.87443 0.0131414 7.69323C0.0382168 7.51204 0.0987583 7.33757 0.191305 7.17979C0.283852 7.022 0.406589 6.88401 0.5525 6.77369C0.698358 6.66292 0.864644 6.58202 1.04183 6.53562C1.21901 6.48923 1.40361 6.47826 1.58504 6.50334C1.76647 6.52843 1.94117 6.58907 2.09912 6.68179C2.25707 6.77452 2.39517 6.8975 2.5055 7.04369L4.8565 10.1477L10.7675 0.655694C10.9635 0.342294 11.2759 0.119441 11.636 0.0360176C11.9961 -0.0474054 12.3746 0.0154132 12.6885 0.210694C13.3415 0.616694 13.5425 1.47669 13.1345 2.13069L6.1505 13.3407C6.03128 13.5329 5.86695 13.6931 5.67177 13.8075C5.4766 13.9218 5.25647 13.9867 5.0305 13.9967C5.0085 13.9987 4.9885 13.9987 4.9665 13.9987Z" fill="#FED100"></path>
  </symbol>
  <symbol fill="none" xmlns="http://www.w3.org/2000/svg" viewBox="0 0 53 53" id="phone">
    <path d="M40.9472 28.6482C40.689 28.3895 40.3823 28.1843 40.0446 28.0442C39.707 27.9042 39.345 27.8321 38.9795 27.8321C38.614 27.8321 38.252 27.9042 37.9144 28.0442C37.5767 28.1843 37.27 28.3895 37.0118 28.6482L32.5753 33.0846C30.5185 32.4723 26.6805 31.0807 24.248 28.6482C21.8154 26.2156 20.4238 22.3776 19.8115 20.3208L24.248 15.8844C24.5066 15.6261 24.7119 15.3194 24.8519 14.9817C24.9919 14.6441 25.064 14.2822 25.064 13.9166C25.064 13.5511 24.9919 13.1892 24.8519 12.8515C24.7119 12.5139 24.5066 12.2071 24.248 11.9489L13.1151 0.816041C12.8569 0.557353 12.5501 0.352125 12.2125 0.2121C11.8748 0.0720743 11.5129 0 11.1474 0C10.7818 0 10.4199 0.0720743 10.0823 0.2121C9.74461 0.352125 9.43789 0.557353 9.17964 0.816041L1.63157 8.36411C0.573945 9.42174 -0.021663 10.8746 0.00060269 12.358C0.0646166 16.3213 1.11389 30.0871 11.9629 40.9361C22.8118 51.785 36.5776 52.8315 40.5437 52.8983H40.6216C42.0911 52.8983 43.48 52.3194 44.532 51.2673L52.0801 43.7193C52.3388 43.461 52.544 43.1543 52.684 42.8167C52.824 42.479 52.8961 42.1171 52.8961 41.7515C52.8961 41.386 52.824 41.0241 52.684 40.6864C52.544 40.3488 52.3388 40.0421 52.0801 39.7838C52.0801 39.7838 45.2949 32.9969 40.9472 28.6482ZM40.5938 47.3291C37.1203 47.2706 25.236 46.3383 15.8983 36.9978C6.53002 27.6295 5.62269 15.7034 5.56703 12.2996L11.1474 6.71924L18.3448 13.9166L14.7461 17.5153C14.4189 17.8422 14.1784 18.2455 14.0462 18.6886C13.9141 19.1318 13.8944 19.6009 13.989 20.0536C14.0558 20.3737 15.6896 27.9635 20.3097 32.5836C24.9298 37.2038 32.5197 38.8375 32.8397 38.9043C33.2921 39.0016 33.7617 38.9835 34.2053 38.8517C34.6489 38.7199 35.0522 38.4786 35.378 38.1501L38.9795 34.5514L46.1769 41.7488L40.5938 47.3291Z" fill="#FDF7F7"></path>
  </symbol>
  <symbol fill="none" xmlns="http://www.w3.org/2000/svg" viewBox="0 0 16 16" id="star">
    <path d="M15.5 6.3H9.775L8 0.75L6.225 6.3H0.5L5.125 9.725L3.375 15.25L8 11.825L12.625 15.25L10.85 9.7L15.5 6.3Z" fill="#FF352B"></path>
  </symbol>
  <symbol fill="none" xmlns="http://www.w3.org/2000/svg" viewBox="0 0 14 14" id="tick">
    <path d="M4.9665 13.998C4.5315 13.998 4.1195 13.795 3.8555 13.445L0.2825 8.72396C0.172033 8.57816 0.091385 8.41202 0.0451667 8.23504C-0.00105163 8.05805 -0.0119341 7.87369 0.0131414 7.6925C0.0382168 7.51131 0.0987583 7.33683 0.191305 7.17905C0.283852 7.02127 0.406589 6.88328 0.5525 6.77296C0.698358 6.66218 0.864644 6.58128 1.04183 6.53489C1.21901 6.4885 1.40361 6.47753 1.58504 6.50261C1.76647 6.52769 1.94117 6.58834 2.09912 6.68106C2.25707 6.77378 2.39517 6.89677 2.5055 7.04296L4.8565 10.147L10.7675 0.654962C10.9635 0.341561 11.2759 0.118708 11.636 0.0352852C11.9961 -0.0481378 12.3746 0.0146808 12.6885 0.209962C13.3415 0.615962 13.5425 1.47596 13.1345 2.12996L6.1505 13.34C6.03128 13.5322 5.86695 13.6924 5.67177 13.8067C5.4766 13.921 5.25647 13.986 5.0305 13.996C5.0085 13.998 4.9885 13.998 4.9665 13.998Z" fill="#333333"></path>
  </symbol>
  <symbol fill="none" xmlns="http://www.w3.org/2000/svg" viewBox="0 0 18 18" id="youtube">
    <path d="M17.2984 1.54518C16.6487 0.447678 15.449 0 13.1581 0H4.84177C2.49834 0 1.27841 0.476555 0.631104 1.645C0 2.78425 0 4.46283 0 6.78603V11.214C0 15.7148 0.7488 18 4.84177 18H13.1581C15.1448 18 16.2458 17.605 16.958 16.6364C17.6884 15.6432 18 14.0216 18 11.214V6.78603C18 4.33602 17.9512 2.64754 17.2984 1.54518ZM11.5561 9.61137L7.77966 12.4158C7.69524 12.4785 7.60291 12.5096 7.5107 12.5096C7.4063 12.5096 7.30214 12.4697 7.20987 12.3903C7.03614 12.2408 6.93006 11.9732 6.93006 11.6846V6.09364C6.93006 5.80553 7.03585 5.53821 7.20924 5.38854C7.38267 5.23889 7.59838 5.22866 7.77832 5.36149L11.5548 8.14787C11.7469 8.28963 11.8675 8.57147 11.8678 8.87896C11.8681 9.18672 11.7479 9.46896 11.5561 9.61137Z" fill="#333333"></path>
  </symbol>
  <symbol fill="none" xmlns="http://www.w3.org/2000/svg" viewBox="0 0 11 20" id="arrow-left">
    <path d="M8.75 17.75L2 9.875L8.75 2" stroke="#333333" stroke-width="3" stroke-linecap="round" stroke-linejoin="round"></path>
  </symbol>
</svg>